# Blender v2.83.0 OBJ File: 'Tramo_Curv1.blend'
# www.blender.org
mtllib Tramo_Curv1.mtl
o Cube.004_Cube.007
v -3.000000 0.500000 4.000000
v -3.000000 0.000000 4.000000
v -4.000000 0.000000 4.000000
v 4.000000 0.000003 -4.000001
v 4.000000 0.500001 -3.000000
v 4.000000 0.000001 -3.000000
v 4.000000 0.500000 4.000000
v 4.000000 0.000000 4.000000
v -4.000000 0.000000 0.333374
v 0.333374 0.000001 -4.000001
v -3.946649 0.000000 -0.344515
v -3.787909 0.000000 -1.005713
v -3.527690 0.000000 -1.633937
v -3.172399 0.000000 -2.213720
v -2.730784 0.000000 -2.730784
v -2.213719 0.000001 -3.172400
v -1.633937 0.000001 -3.527691
v -1.005713 0.000001 -3.787910
v -0.344515 0.000001 -3.946650
v 0.791702 0.500001 -3.000000
v -3.000000 0.500000 0.791702
v 0.198549 0.500001 -2.953318
v -0.379999 0.500000 -2.814421
v -0.929695 0.500000 -2.586730
v -1.437005 0.500000 -2.275849
v -1.889436 0.500000 -1.889436
v -2.275849 0.500000 -1.437005
v -2.586729 0.500000 -0.929695
v -2.814421 0.500000 -0.379998
v -2.953318 0.500000 0.198549
vt 0.375000 0.500000
vt 0.375000 0.614582
vt 0.374543 0.635870
vt 0.373308 0.656775
vt 0.371366 0.676675
vt 0.368599 0.694958
vt 0.364667 0.737508
vt 0.359261 0.779071
vt 0.352553 0.794562
vt 0.345054 0.810179
vt 0.337306 0.825570
vt 0.239582 0.750000
vt 0.125000 0.750000
vt 0.375000 0.500000
vt 0.375000 0.750000
vt 0.125000 0.500000
vt 0.625000 0.500000
vt 0.739582 0.500000
vt 0.586922 0.188056
vt 0.593810 0.189709
vt 0.600354 0.192420
vt 0.606393 0.196121
vt 0.611779 0.200721
vt 0.616379 0.238670
vt 0.620080 0.255278
vt 0.622791 0.273274
vt 0.624444 0.292214
vt 0.875000 0.635418
vt 0.875000 0.750000
vt 0.625000 0.750000
vn 0.0000 -1.0000 -0.0000
vn -0.0000 1.0000 0.0000
usemtl Material
s off
f 3/1/1 9/2/1 11/3/1 12/4/1 13/5/1 14/6/1 15/7/1 16/8/1 17/9/1 18/10/1 19/11/1 10/12/1 4/13/1 6/14/1 8/15/1 2/16/1
f 5/17/2 20/18/2 22/19/2 23/20/2 24/21/2 25/22/2 26/23/2 27/24/2 28/25/2 29/26/2 30/27/2 21/28/2 1/29/2 7/30/2
l 7 8
o Cube.005_Cube.010
v 3.000001 0.500000 4.000000
v 3.000001 0.000000 4.000000
v 2.999999 0.000000 3.000000
v 3.999999 1.000000 2.999999
v 3.999999 0.000000 2.999999
v 4.000001 1.000000 3.999999
v 4.000001 0.000000 3.999999
v 3.000001 1.000000 4.000000
v 3.999999 0.500000 2.999999
v 4.000001 0.500000 3.999999
v 3.000000 0.500000 3.858007
v 3.858007 0.500000 3.000000
v 3.010564 0.500000 3.723785
v 3.041994 0.500000 3.592868
v 3.093517 0.500000 3.468480
v 3.163865 0.500000 3.353683
v 3.251304 0.500000 3.251304
v 3.353683 0.500000 3.163864
v 3.468480 0.500000 3.093517
v 3.592868 0.500000 3.041993
v 3.723785 0.500000 3.010563
v 3.858007 1.000000 3.000000
v 3.000001 1.000000 3.858007
v 3.723785 1.000000 3.010563
v 3.592868 1.000000 3.041993
v 3.468479 1.000000 3.093517
v 3.353683 1.000000 3.163864
v 3.251304 1.000000 3.251304
v 3.163864 1.000000 3.353683
v 3.093517 1.000000 3.468480
v 3.041994 1.000000 3.592868
v 3.010564 1.000000 3.723785
vt 0.500000 0.750000
vt 0.625000 0.750000
vt 0.625000 1.000000
vt 0.500000 1.000000
vt 0.625000 0.500000
vt 0.660498 0.500000
vt 0.648018 0.454845
vt 0.658928 0.435644
vt 0.669293 0.419207
vt 0.678860 0.405936
vt 0.687391 0.354275
vt 0.694678 0.303860
vt 0.700540 0.294293
vt 0.704834 0.283928
vt 0.707453 0.273018
vt 0.875000 0.714502
vt 0.875000 0.750000
vt 0.125000 0.500000
vt 0.375000 0.500000
vt 0.375000 0.750000
vt 0.125000 0.750000
vt 0.500000 0.000000
vt 0.625000 0.000000
vt 0.625000 0.035498
vt 0.500000 0.035498
vt 0.500000 0.500000
vt 0.375000 1.000000
vt 0.625000 0.464502
vt 0.500000 0.464502
vt 0.500000 0.430946
vt 0.500000 0.398217
vt 0.500000 0.367120
vt 0.500000 0.338421
vt 0.500000 0.250000
vt 0.500000 0.161579
vt 0.500000 0.132880
vt 0.500000 0.101783
vt 0.500000 0.069054
vn 0.0000 0.0000 1.0000
vn 0.0000 1.0000 0.0000
vn 0.0000 -1.0000 0.0000
vn -1.0000 0.0000 0.0000
vn 1.0000 0.0000 -0.0000
vn -0.0785 0.0000 -0.9969
vn -0.2334 -0.0000 -0.9724
vn -0.3827 -0.0000 -0.9239
vn -0.5225 -0.0000 -0.8526
vn -0.6494 -0.0000 -0.7604
vn -0.7604 -0.0000 -0.6494
vn -0.8526 -0.0000 -0.5225
vn -0.9239 -0.0000 -0.3827
vn -0.9724 0.0000 -0.2334
vn -0.9969 0.0000 -0.0785
vn -0.0000 0.0000 -1.0000
usemtl Material
s off
f 40/31/3 36/32/3 38/33/3 31/34/3
f 34/35/4 52/36/4 54/37/4 55/38/4 56/39/4 57/40/4 58/41/4 59/42/4 60/43/4 61/44/4 62/45/4 53/46/4 38/47/4 36/32/4
f 33/48/5 35/49/5 37/50/5 32/51/5
f 31/52/6 38/53/6 53/54/6 41/55/6
f 39/56/7 34/35/7 36/32/7 40/31/7
f 37/50/3 40/31/3 31/34/3 32/57/3
f 35/49/7 39/56/7 40/31/7 37/50/7
f 52/58/8 42/59/8 51/60/8 54/37/8
f 54/37/9 51/60/9 50/61/9 55/38/9
f 55/38/10 50/61/10 49/62/10 56/39/10
f 56/39/11 49/62/11 48/63/11 57/40/11
f 57/40/12 48/63/12 47/64/12 58/41/12
f 58/41/13 47/64/13 46/65/13 59/42/13
f 59/42/14 46/65/14 45/66/14 60/43/14
f 60/43/15 45/66/15 44/67/15 61/44/15
f 61/44/16 44/67/16 43/68/16 62/45/16
f 62/45/17 43/68/17 41/55/17 53/54/17
f 42/59/18 52/58/18 34/35/18 39/56/18
o Cube.001_Cube.013
v -3.000000 0.500000 4.000000
v -3.000000 0.000000 4.000000
v -4.000000 1.000000 4.000000
v -4.000000 0.000000 4.000000
v -3.000000 1.000000 4.000000
v -4.000000 0.500000 4.000000
v 4.000000 0.500003 -4.000001
v 4.000000 0.000003 -4.000001
v 4.000000 0.500001 -3.000000
v 4.000000 1.000003 -4.000001
v 4.000000 0.000001 -3.000000
v 4.000000 1.000003 -3.000001
v 0.333373 1.000001 -4.000000
v -4.000000 1.000000 0.333374
v -0.344516 1.000001 -3.946650
v -1.005713 1.000001 -3.787910
v -1.633938 1.000001 -3.527691
v -2.213720 1.000001 -3.172399
v -2.730785 1.000000 -2.730784
v -3.172400 1.000000 -2.213719
v -3.527691 1.000000 -1.633937
v -3.787910 1.000000 -1.005712
v -3.946649 1.000000 -0.344515
v -4.000000 0.000000 0.333374
v 0.333374 0.000001 -4.000001
v -3.946649 0.000000 -0.344515
v -3.787909 0.000000 -1.005713
v -3.527690 0.000000 -1.633937
v -3.172399 0.000000 -2.213720
v -2.730784 0.000000 -2.730784
v -2.213719 0.000001 -3.172400
v -1.633937 0.000001 -3.527691
v -1.005713 0.000001 -3.787910
v -0.344515 0.000001 -3.946650
v -4.000000 0.500000 0.333374
v 0.333373 0.500001 -4.000001
v -3.946649 0.500000 -0.344515
v -3.787910 0.500000 -1.005713
v -3.527691 0.500000 -1.633937
v -3.172400 0.500000 -2.213720
v -2.730784 0.500000 -2.730784
v -2.213720 0.500001 -3.172400
v -1.633937 0.500001 -3.527691
v -1.005713 0.500001 -3.787910
v -0.344516 0.500001 -3.946650
v 0.791702 0.500001 -3.000000
v -3.000000 0.500000 0.791702
v 0.198549 0.500001 -2.953318
v -0.379999 0.500000 -2.814421
v -0.929695 0.500000 -2.586730
v -1.437005 0.500000 -2.275849
v -1.889436 0.500000 -1.889436
v -2.275849 0.500000 -1.437005
v -2.586729 0.500000 -0.929695
v -2.814421 0.500000 -0.379998
v -2.953318 0.500000 0.198549
v -3.000000 1.000000 0.791702
v 0.791702 1.000001 -3.000001
v -2.953318 1.000000 0.198549
v -2.814421 1.000000 -0.379999
v -2.586729 1.000000 -0.929695
v -2.275849 1.000000 -1.437005
v -1.889436 1.000000 -1.889437
v -1.437005 1.000001 -2.275850
v -0.929695 1.000001 -2.586730
v -0.379999 1.000001 -2.814421
v 0.198549 1.000001 -2.953319
vt 0.500000 0.250000
vt 0.625000 0.250000
vt 0.625000 0.500000
vt 0.500000 0.500000
vt 0.375000 0.250000
vt 0.375000 0.500000
vt 0.500000 0.614582
vt 0.375000 0.614582
vt 0.875000 0.718750
vt 0.875000 0.718750
vt 0.875000 0.750000
vt 0.760418 0.750000
vt 0.500000 0.000000
vt 0.625000 0.000000
vt 0.625000 0.031250
vt 0.500000 0.031250
vt 0.125000 0.750000
vt 0.125000 0.718750
vt 0.625000 0.614582
vt 0.500000 0.149741
vt 0.625000 0.149741
vt 0.500000 0.031250
vt 0.625000 0.031250
vt 0.500000 0.885418
vt 0.500000 1.000000
vt 0.375000 1.000000
vt 0.375000 0.885418
vt 0.337306 0.825570
vt 0.500000 0.864234
vt 0.345054 0.810179
vt 0.500000 0.843571
vt 0.352553 0.794562
vt 0.500000 0.823939
vt 0.359261 0.779071
vt 0.500000 0.805821
vt 0.364667 0.737508
vt 0.500000 0.750000
vt 0.368599 0.694958
vt 0.500000 0.694179
vt 0.371366 0.676675
vt 0.500000 0.676060
vt 0.373308 0.656775
vt 0.500000 0.656429
vt 0.374543 0.635870
vt 0.500000 0.635766
vt 0.625000 0.885418
vt 0.664950 0.825600
vt 0.664842 0.810172
vt 0.672255 0.794373
vt 0.692797 0.778593
vt 0.728368 0.736779
vt 0.690416 0.694179
vt 0.660192 0.676061
vt 0.640746 0.656429
vt 0.629018 0.635766
vt 0.624444 0.292214
vt 0.712509 0.293735
vt 0.622791 0.273274
vt 0.725321 0.287708
vt 0.620080 0.255278
vt 0.746993 0.281982
vt 0.616379 0.238670
vt 0.773682 0.276698
vt 0.611779 0.200721
vt 0.785435 0.248848
vt 0.606393 0.196121
vt 0.765248 0.252873
vt 0.600354 0.192420
vt 0.737575 0.256112
vt 0.593810 0.189709
vt 0.719434 0.258484
vt 0.586922 0.188056
vt 0.710673 0.259930
vt 0.625000 1.000000
vt 0.875000 0.500000
vt 0.875000 0.600259
vn 0.0000 0.0000 1.0000
vn -1.0000 -0.0000 0.0000
vn -0.0000 1.0000 0.0000
vn 1.0000 0.0000 -0.0000
vn -0.0000 0.0000 -1.0000
vn -0.0785 -0.0000 -0.9969
vn -0.2334 -0.0000 -0.9724
vn -0.3827 -0.0000 -0.9239
vn -0.5225 -0.0000 -0.8526
vn -0.6494 -0.0000 -0.7604
vn -0.7604 -0.0000 -0.6494
vn -0.8526 -0.0000 -0.5225
vn -0.9239 -0.0000 -0.3827
vn -0.9724 -0.0000 -0.2334
vn -0.9969 0.0000 -0.0785
vn 0.9969 -0.0000 0.0785
vn 0.9724 -0.0000 0.2334
vn 0.9239 0.0000 0.3827
vn 0.8526 0.0000 0.5225
vn 0.7604 0.0000 0.6494
vn 0.6494 0.0000 0.7604
vn 0.5225 0.0000 0.8526
vn 0.3827 0.0000 0.9239
vn 0.2334 0.0000 0.9724
vn 0.0785 0.0000 0.9969
usemtl Material
s off
f 63/69/19 67/70/19 65/71/19 68/72/19
f 64/73/19 63/69/19 68/72/19 66/74/19
f 68/72/20 97/75/20 86/76/20 66/74/20
f 120/77/21 74/78/21 72/79/21 75/80/21
f 69/81/22 72/82/22 74/83/22 71/84/22
f 70/85/22 69/81/22 71/84/22 73/86/22
f 65/71/20 76/87/20 97/75/20 68/72/20
f 109/88/22 119/89/22 67/70/22 63/69/22
f 108/90/19 71/84/19 74/83/19 120/91/19
f 98/92/23 69/93/23 70/94/23 87/95/23
f 98/92/24 87/95/24 96/96/24 107/97/24
f 107/97/25 96/96/25 95/98/25 106/99/25
f 106/99/26 95/98/26 94/100/26 105/101/26
f 105/101/27 94/100/27 93/102/27 104/103/27
f 104/103/28 93/102/28 92/104/28 103/105/28
f 103/105/29 92/104/29 91/106/29 102/107/29
f 102/107/30 91/106/30 90/108/30 101/109/30
f 101/109/31 90/108/31 89/110/31 100/111/31
f 100/111/32 89/110/32 88/112/32 99/113/32
f 99/113/33 88/112/33 86/76/33 97/75/33
f 75/114/24 98/92/24 107/97/24 77/115/24
f 77/115/25 107/97/25 106/99/25 78/116/25
f 78/116/26 106/99/26 105/101/26 79/117/26
f 79/117/27 105/101/27 104/103/27 80/118/27
f 80/118/28 104/103/28 103/105/28 81/119/28
f 81/119/29 103/105/29 102/107/29 82/120/29
f 82/120/30 102/107/30 101/109/30 83/121/30
f 83/121/31 101/109/31 100/111/31 84/122/31
f 84/122/32 100/111/32 99/113/32 85/123/32
f 85/123/33 99/113/33 97/75/33 76/87/33
f 119/89/34 109/88/34 118/124/34 121/125/34
f 121/125/35 118/124/35 117/126/35 122/127/35
f 122/127/36 117/126/36 116/128/36 123/129/36
f 123/129/37 116/128/37 115/130/37 124/131/37
f 124/131/38 115/130/38 114/132/38 125/133/38
f 125/133/39 114/132/39 113/134/39 126/135/39
f 126/135/40 113/134/40 112/136/40 127/137/40
f 127/137/41 112/136/41 111/138/41 128/139/41
f 128/139/42 111/138/42 110/140/42 129/141/42
f 129/141/43 110/140/43 108/90/43 120/91/43
f 72/142/23 69/93/23 98/92/23 75/114/23
f 67/143/21 119/144/21 76/87/21 65/71/21
f 119/144/21 121/125/21 85/123/21 76/87/21
f 121/125/21 122/127/21 84/122/21 85/123/21
f 122/127/21 123/129/21 83/121/21 84/122/21
f 123/129/21 124/131/21 82/120/21 83/121/21
f 124/131/21 125/133/21 81/119/21 82/120/21
f 125/133/21 126/135/21 80/118/21 81/119/21
f 126/135/21 127/137/21 79/117/21 80/118/21
f 127/137/21 128/139/21 78/116/21 79/117/21
f 128/139/21 129/141/21 77/115/21 78/116/21
f 129/141/21 120/77/21 75/80/21 77/115/21
