# Blender v2.83.0 OBJ File: 'Tramo_Curv1.blend'
# www.blender.org
mtllib Tramo_Curv90_BarreraEx.mtl
o Cube.001_Cube.013
v -3.000000 0.500000 4.000000
v -3.000000 0.000000 4.000000
v -4.000000 1.000000 4.000000
v -4.000000 0.000000 4.000000
v -3.000000 1.000000 4.000000
v -4.000000 0.500000 4.000000
v 4.000000 0.500003 -4.000001
v 4.000000 0.000003 -4.000001
v 4.000000 0.500001 -3.000000
v 4.000000 1.000003 -4.000001
v 4.000000 0.000001 -3.000000
v 4.000000 1.000003 -3.000001
v 0.333373 1.000001 -4.000000
v -4.000000 1.000000 0.333374
v -0.344516 1.000001 -3.946650
v -1.005713 1.000001 -3.787910
v -1.633938 1.000001 -3.527691
v -2.213720 1.000001 -3.172399
v -2.730785 1.000000 -2.730784
v -3.172400 1.000000 -2.213719
v -3.527691 1.000000 -1.633937
v -3.787910 1.000000 -1.005712
v -3.946649 1.000000 -0.344515
v -4.000000 0.000000 0.333374
v 0.333374 0.000001 -4.000001
v -3.946649 0.000000 -0.344515
v -3.787909 0.000000 -1.005713
v -3.527690 0.000000 -1.633937
v -3.172399 0.000000 -2.213720
v -2.730784 0.000000 -2.730784
v -2.213719 0.000001 -3.172400
v -1.633937 0.000001 -3.527691
v -1.005713 0.000001 -3.787910
v -0.344515 0.000001 -3.946650
v -4.000000 0.500000 0.333374
v 0.333373 0.500001 -4.000001
v -3.946649 0.500000 -0.344515
v -3.787910 0.500000 -1.005713
v -3.527691 0.500000 -1.633937
v -3.172400 0.500000 -2.213720
v -2.730784 0.500000 -2.730784
v -2.213720 0.500001 -3.172400
v -1.633937 0.500001 -3.527691
v -1.005713 0.500001 -3.787910
v -0.344516 0.500001 -3.946650
v 0.791702 0.500001 -3.000000
v -3.000000 0.500000 0.791702
v 0.198549 0.500001 -2.953318
v -0.379999 0.500000 -2.814421
v -0.929695 0.500000 -2.586730
v -1.437005 0.500000 -2.275849
v -1.889436 0.500000 -1.889436
v -2.275849 0.500000 -1.437005
v -2.586729 0.500000 -0.929695
v -2.814421 0.500000 -0.379998
v -2.953318 0.500000 0.198549
v -3.000000 1.000000 0.791702
v 0.791702 1.000001 -3.000001
v -2.953318 1.000000 0.198549
v -2.814421 1.000000 -0.379999
v -2.586729 1.000000 -0.929695
v -2.275849 1.000000 -1.437005
v -1.889436 1.000000 -1.889437
v -1.437005 1.000001 -2.275850
v -0.929695 1.000001 -2.586730
v -0.379999 1.000001 -2.814421
v 0.198549 1.000001 -2.953319
vt 0.500000 0.250000
vt 0.625000 0.250000
vt 0.625000 0.500000
vt 0.500000 0.500000
vt 0.375000 0.250000
vt 0.375000 0.500000
vt 0.500000 0.614582
vt 0.375000 0.614582
vt 0.875000 0.718750
vt 0.875000 0.718750
vt 0.875000 0.750000
vt 0.760418 0.750000
vt 0.500000 0.000000
vt 0.625000 0.000000
vt 0.625000 0.031250
vt 0.500000 0.031250
vt 0.125000 0.750000
vt 0.125000 0.718750
vt 0.625000 0.614582
vt 0.500000 0.149741
vt 0.625000 0.149741
vt 0.500000 0.031250
vt 0.625000 0.031250
vt 0.500000 0.885418
vt 0.500000 1.000000
vt 0.375000 1.000000
vt 0.375000 0.885418
vt 0.337306 0.825570
vt 0.500000 0.864234
vt 0.345054 0.810179
vt 0.500000 0.843571
vt 0.352553 0.794562
vt 0.500000 0.823939
vt 0.359261 0.779071
vt 0.500000 0.805821
vt 0.364667 0.737508
vt 0.500000 0.750000
vt 0.368599 0.694958
vt 0.500000 0.694179
vt 0.371366 0.676675
vt 0.500000 0.676060
vt 0.373308 0.656775
vt 0.500000 0.656429
vt 0.374543 0.635870
vt 0.500000 0.635766
vt 0.625000 0.885418
vt 0.664950 0.825600
vt 0.664842 0.810172
vt 0.672255 0.794373
vt 0.692797 0.778593
vt 0.728368 0.736779
vt 0.690416 0.694179
vt 0.660192 0.676061
vt 0.640746 0.656429
vt 0.629018 0.635766
vt 0.624444 0.292214
vt 0.712509 0.293735
vt 0.622791 0.273274
vt 0.725321 0.287708
vt 0.620080 0.255278
vt 0.746993 0.281982
vt 0.616379 0.238670
vt 0.773682 0.276698
vt 0.611779 0.200721
vt 0.785435 0.248848
vt 0.606393 0.196121
vt 0.765248 0.252873
vt 0.600354 0.192420
vt 0.737575 0.256112
vt 0.593810 0.189709
vt 0.719434 0.258484
vt 0.586922 0.188056
vt 0.710673 0.259930
vt 0.625000 1.000000
vt 0.875000 0.500000
vt 0.875000 0.600259
vn 0.0000 0.0000 1.0000
vn -1.0000 -0.0000 0.0000
vn -0.0000 1.0000 0.0000
vn 1.0000 0.0000 -0.0000
vn -0.0000 0.0000 -1.0000
vn -0.0785 -0.0000 -0.9969
vn -0.2334 -0.0000 -0.9724
vn -0.3827 -0.0000 -0.9239
vn -0.5225 -0.0000 -0.8526
vn -0.6494 -0.0000 -0.7604
vn -0.7604 -0.0000 -0.6494
vn -0.8526 -0.0000 -0.5225
vn -0.9239 -0.0000 -0.3827
vn -0.9724 -0.0000 -0.2334
vn -0.9969 0.0000 -0.0785
vn 0.9969 -0.0000 0.0785
vn 0.9724 -0.0000 0.2334
vn 0.9239 0.0000 0.3827
vn 0.8526 0.0000 0.5225
vn 0.7604 0.0000 0.6494
vn 0.6494 0.0000 0.7604
vn 0.5225 0.0000 0.8526
vn 0.3827 0.0000 0.9239
vn 0.2334 0.0000 0.9724
vn 0.0785 0.0000 0.9969
usemtl Material
s off
f 1/1/1 5/2/1 3/3/1 6/4/1
f 2/5/1 1/1/1 6/4/1 4/6/1
f 6/4/2 35/7/2 24/8/2 4/6/2
f 58/9/3 12/10/3 10/11/3 13/12/3
f 7/13/4 10/14/4 12/15/4 9/16/4
f 8/17/4 7/13/4 9/16/4 11/18/4
f 3/3/2 14/19/2 35/7/2 6/4/2
f 47/20/4 57/21/4 5/2/4 1/1/4
f 46/22/1 9/16/1 12/15/1 58/23/1
f 36/24/5 7/25/5 8/26/5 25/27/5
f 36/24/6 25/27/6 34/28/6 45/29/6
f 45/29/7 34/28/7 33/30/7 44/31/7
f 44/31/8 33/30/8 32/32/8 43/33/8
f 43/33/9 32/32/9 31/34/9 42/35/9
f 42/35/10 31/34/10 30/36/10 41/37/10
f 41/37/11 30/36/11 29/38/11 40/39/11
f 40/39/12 29/38/12 28/40/12 39/41/12
f 39/41/13 28/40/13 27/42/13 38/43/13
f 38/43/14 27/42/14 26/44/14 37/45/14
f 37/45/15 26/44/15 24/8/15 35/7/15
f 13/46/6 36/24/6 45/29/6 15/47/6
f 15/47/7 45/29/7 44/31/7 16/48/7
f 16/48/8 44/31/8 43/33/8 17/49/8
f 17/49/9 43/33/9 42/35/9 18/50/9
f 18/50/10 42/35/10 41/37/10 19/51/10
f 19/51/11 41/37/11 40/39/11 20/52/11
f 20/52/12 40/39/12 39/41/12 21/53/12
f 21/53/13 39/41/13 38/43/13 22/54/13
f 22/54/14 38/43/14 37/45/14 23/55/14
f 23/55/15 37/45/15 35/7/15 14/19/15
f 57/21/16 47/20/16 56/56/16 59/57/16
f 59/57/17 56/56/17 55/58/17 60/59/17
f 60/59/18 55/58/18 54/60/18 61/61/18
f 61/61/19 54/60/19 53/62/19 62/63/19
f 62/63/20 53/62/20 52/64/20 63/65/20
f 63/65/21 52/64/21 51/66/21 64/67/21
f 64/67/22 51/66/22 50/68/22 65/69/22
f 65/69/23 50/68/23 49/70/23 66/71/23
f 66/71/24 49/70/24 48/72/24 67/73/24
f 67/73/25 48/72/25 46/22/25 58/23/25
f 10/74/5 7/25/5 36/24/5 13/46/5
f 5/75/3 57/76/3 14/19/3 3/3/3
f 57/76/3 59/57/3 23/55/3 14/19/3
f 59/57/3 60/59/3 22/54/3 23/55/3
f 60/59/3 61/61/3 21/53/3 22/54/3
f 61/61/3 62/63/3 20/52/3 21/53/3
f 62/63/3 63/65/3 19/51/3 20/52/3
f 63/65/3 64/67/3 18/50/3 19/51/3
f 64/67/3 65/69/3 17/49/3 18/50/3
f 65/69/3 66/71/3 16/48/3 17/49/3
f 66/71/3 67/73/3 15/47/3 16/48/3
f 67/73/3 58/9/3 13/12/3 15/47/3
